<svg width="1260" height="6252" viewBox="0 0 1260 6252" fill="none" xmlns="http://www.w3.org/2000/svg">
<g clip-path="url(#clip0_11_365)">
<rect width="1260" height="6252" fill="black"/>
<path d="M337.93 5365.06C337.93 5364.7 337.806 5364.39 337.559 5364.12C337.324 5363.85 336.908 5363.6 336.309 5363.38C335.71 5363.15 334.87 5362.91 333.789 5362.68C332.76 5362.46 331.79 5362.17 330.879 5361.8C329.98 5361.44 329.193 5360.99 328.516 5360.47C327.839 5359.95 327.305 5359.33 326.914 5358.62C326.536 5357.9 326.348 5357.08 326.348 5356.16C326.348 5355.26 326.536 5354.41 326.914 5353.62C327.305 5352.81 327.871 5352.1 328.613 5351.49C329.368 5350.86 330.286 5350.38 331.367 5350.02C332.448 5349.66 333.678 5349.48 335.059 5349.48C336.96 5349.48 338.6 5349.77 339.98 5350.36C341.361 5350.93 342.422 5351.74 343.164 5352.78C343.919 5353.81 344.297 5355 344.297 5356.35H337.715C337.715 5355.82 337.624 5355.36 337.441 5354.98C337.272 5354.61 336.992 5354.32 336.602 5354.12C336.211 5353.92 335.69 5353.81 335.039 5353.81C334.583 5353.81 334.167 5353.9 333.789 5354.07C333.424 5354.24 333.132 5354.47 332.91 5354.77C332.689 5355.07 332.578 5355.42 332.578 5355.82C332.578 5356.11 332.643 5356.37 332.773 5356.61C332.917 5356.83 333.132 5357.04 333.418 5357.23C333.704 5357.41 334.069 5357.58 334.512 5357.74C334.954 5357.88 335.488 5358.01 336.113 5358.13C337.533 5358.39 338.861 5358.76 340.098 5359.24C341.335 5359.72 342.337 5360.41 343.105 5361.29C343.887 5362.18 344.277 5363.37 344.277 5364.87C344.277 5365.8 344.062 5366.67 343.633 5367.46C343.203 5368.25 342.585 5368.94 341.777 5369.54C340.97 5370.12 340 5370.58 338.867 5370.9C337.734 5371.23 336.458 5371.39 335.039 5371.39C333.021 5371.39 331.315 5371.03 329.922 5370.32C328.529 5369.59 327.474 5368.68 326.758 5367.58C326.055 5366.48 325.703 5365.36 325.703 5364.22H331.836C331.862 5364.87 332.018 5365.41 332.305 5365.82C332.604 5366.24 333.001 5366.55 333.496 5366.74C333.991 5366.94 334.564 5367.04 335.215 5367.04C335.814 5367.04 336.309 5366.95 336.699 5366.78C337.103 5366.61 337.409 5366.38 337.617 5366.1C337.826 5365.8 337.93 5365.45 337.93 5365.06ZM358.438 5365.06C358.438 5364.7 358.314 5364.39 358.066 5364.12C357.832 5363.85 357.415 5363.6 356.816 5363.38C356.217 5363.15 355.378 5362.91 354.297 5362.68C353.268 5362.46 352.298 5362.17 351.387 5361.8C350.488 5361.44 349.701 5360.99 349.023 5360.47C348.346 5359.95 347.812 5359.33 347.422 5358.62C347.044 5357.9 346.855 5357.08 346.855 5356.16C346.855 5355.26 347.044 5354.41 347.422 5353.62C347.812 5352.81 348.379 5352.1 349.121 5351.49C349.876 5350.86 350.794 5350.38 351.875 5350.02C352.956 5349.66 354.186 5349.48 355.566 5349.48C357.467 5349.48 359.108 5349.77 360.488 5350.36C361.868 5350.93 362.93 5351.74 363.672 5352.78C364.427 5353.81 364.805 5355 364.805 5356.35H358.223C358.223 5355.82 358.132 5355.36 357.949 5354.98C357.78 5354.61 357.5 5354.32 357.109 5354.12C356.719 5353.92 356.198 5353.81 355.547 5353.81C355.091 5353.81 354.674 5353.9 354.297 5354.07C353.932 5354.24 353.639 5354.47 353.418 5354.77C353.197 5355.07 353.086 5355.42 353.086 5355.82C353.086 5356.11 353.151 5356.37 353.281 5356.61C353.424 5356.83 353.639 5357.04 353.926 5357.23C354.212 5357.41 354.577 5357.58 355.02 5357.74C355.462 5357.88 355.996 5358.01 356.621 5358.13C358.04 5358.39 359.368 5358.76 360.605 5359.24C361.842 5359.72 362.845 5360.41 363.613 5361.29C364.395 5362.18 364.785 5363.37 364.785 5364.87C364.785 5365.8 364.57 5366.67 364.141 5367.46C363.711 5368.25 363.092 5368.94 362.285 5369.54C361.478 5370.12 360.508 5370.58 359.375 5370.9C358.242 5371.23 356.966 5371.39 355.547 5371.39C353.529 5371.39 351.823 5371.03 350.43 5370.32C349.036 5369.59 347.982 5368.68 347.266 5367.58C346.562 5366.48 346.211 5365.36 346.211 5364.22H352.344C352.37 5364.87 352.526 5365.41 352.812 5365.82C353.112 5366.24 353.509 5366.55 354.004 5366.74C354.499 5366.94 355.072 5367.04 355.723 5367.04C356.322 5367.04 356.816 5366.95 357.207 5366.78C357.611 5366.61 357.917 5366.38 358.125 5366.1C358.333 5365.8 358.438 5365.45 358.438 5365.06ZM380.02 5366.16V5341H386.641V5371H380.703L380.02 5366.16ZM367.051 5360.69V5360.28C367.051 5358.68 367.227 5357.22 367.578 5355.9C367.93 5354.57 368.451 5353.43 369.141 5352.48C369.831 5351.52 370.69 5350.78 371.719 5350.26C372.747 5349.74 373.932 5349.48 375.273 5349.48C376.471 5349.48 377.52 5349.76 378.418 5350.32C379.316 5350.86 380.085 5351.63 380.723 5352.62C381.361 5353.61 381.882 5354.77 382.285 5356.1C382.689 5357.41 382.995 5358.83 383.203 5360.36V5360.84C382.995 5362.28 382.689 5363.63 382.285 5364.91C381.882 5366.17 381.361 5367.29 380.723 5368.27C380.085 5369.24 379.31 5370.01 378.398 5370.57C377.5 5371.12 376.445 5371.39 375.234 5371.39C373.893 5371.39 372.708 5371.12 371.68 5370.59C370.664 5370.06 369.811 5369.31 369.121 5368.34C368.444 5367.38 367.93 5366.25 367.578 5364.95C367.227 5363.64 367.051 5362.22 367.051 5360.69ZM373.633 5360.28V5360.69C373.633 5361.48 373.685 5362.22 373.789 5362.89C373.893 5363.57 374.069 5364.17 374.316 5364.69C374.577 5365.2 374.915 5365.6 375.332 5365.88C375.762 5366.17 376.289 5366.31 376.914 5366.31C377.76 5366.31 378.457 5366.11 379.004 5365.71C379.564 5365.3 379.974 5364.73 380.234 5363.99C380.508 5363.25 380.625 5362.37 380.586 5361.37V5359.83C380.612 5358.97 380.553 5358.21 380.41 5357.56C380.267 5356.9 380.039 5356.35 379.727 5355.9C379.427 5355.46 379.043 5355.13 378.574 5354.91C378.118 5354.67 377.578 5354.55 376.953 5354.55C376.341 5354.55 375.82 5354.7 375.391 5354.98C374.974 5355.27 374.635 5355.67 374.375 5356.2C374.115 5356.7 373.926 5357.31 373.809 5358.01C373.691 5358.7 373.633 5359.46 373.633 5360.28ZM401.445 5365.06C401.445 5364.7 401.322 5364.39 401.074 5364.12C400.84 5363.85 400.423 5363.6 399.824 5363.38C399.225 5363.15 398.385 5362.91 397.305 5362.68C396.276 5362.46 395.306 5362.17 394.395 5361.8C393.496 5361.44 392.708 5360.99 392.031 5360.47C391.354 5359.95 390.82 5359.33 390.43 5358.62C390.052 5357.9 389.863 5357.08 389.863 5356.16C389.863 5355.26 390.052 5354.41 390.43 5353.62C390.82 5352.81 391.387 5352.1 392.129 5351.49C392.884 5350.86 393.802 5350.38 394.883 5350.02C395.964 5349.66 397.194 5349.48 398.574 5349.48C400.475 5349.48 402.116 5349.77 403.496 5350.36C404.876 5350.93 405.938 5351.74 406.68 5352.78C407.435 5353.81 407.812 5355 407.812 5356.35H401.23C401.23 5355.82 401.139 5355.36 400.957 5354.98C400.788 5354.61 400.508 5354.32 400.117 5354.12C399.727 5353.92 399.206 5353.81 398.555 5353.81C398.099 5353.81 397.682 5353.9 397.305 5354.07C396.94 5354.24 396.647 5354.47 396.426 5354.77C396.204 5355.07 396.094 5355.42 396.094 5355.82C396.094 5356.11 396.159 5356.37 396.289 5356.61C396.432 5356.83 396.647 5357.04 396.934 5357.23C397.22 5357.41 397.585 5357.58 398.027 5357.74C398.47 5357.88 399.004 5358.01 399.629 5358.13C401.048 5358.39 402.376 5358.76 403.613 5359.24C404.85 5359.72 405.853 5360.41 406.621 5361.29C407.402 5362.18 407.793 5363.37 407.793 5364.87C407.793 5365.8 407.578 5366.67 407.148 5367.46C406.719 5368.25 406.1 5368.94 405.293 5369.54C404.486 5370.12 403.516 5370.58 402.383 5370.9C401.25 5371.23 399.974 5371.39 398.555 5371.39C396.536 5371.39 394.831 5371.03 393.438 5370.32C392.044 5369.59 390.99 5368.68 390.273 5367.58C389.57 5366.48 389.219 5365.36 389.219 5364.22H395.352C395.378 5364.87 395.534 5365.41 395.82 5365.82C396.12 5366.24 396.517 5366.55 397.012 5366.74C397.507 5366.94 398.079 5367.04 398.73 5367.04C399.329 5367.04 399.824 5366.95 400.215 5366.78C400.618 5366.61 400.924 5366.38 401.133 5366.1C401.341 5365.8 401.445 5365.45 401.445 5365.06ZM423.027 5366.16V5341H429.648V5371H423.711L423.027 5366.16ZM410.059 5360.69V5360.28C410.059 5358.68 410.234 5357.22 410.586 5355.9C410.938 5354.57 411.458 5353.43 412.148 5352.48C412.839 5351.52 413.698 5350.78 414.727 5350.26C415.755 5349.74 416.94 5349.48 418.281 5349.48C419.479 5349.48 420.527 5349.76 421.426 5350.32C422.324 5350.86 423.092 5351.63 423.73 5352.62C424.368 5353.61 424.889 5354.77 425.293 5356.1C425.697 5357.41 426.003 5358.83 426.211 5360.36V5360.84C426.003 5362.28 425.697 5363.63 425.293 5364.91C424.889 5366.17 424.368 5367.29 423.73 5368.27C423.092 5369.24 422.318 5370.01 421.406 5370.57C420.508 5371.12 419.453 5371.39 418.242 5371.39C416.901 5371.39 415.716 5371.12 414.688 5370.59C413.672 5370.06 412.819 5369.31 412.129 5368.34C411.452 5367.38 410.938 5366.25 410.586 5364.95C410.234 5363.64 410.059 5362.22 410.059 5360.69ZM416.641 5360.28V5360.69C416.641 5361.48 416.693 5362.22 416.797 5362.89C416.901 5363.57 417.077 5364.17 417.324 5364.69C417.585 5365.2 417.923 5365.6 418.34 5365.88C418.77 5366.17 419.297 5366.31 419.922 5366.31C420.768 5366.31 421.465 5366.11 422.012 5365.71C422.572 5365.3 422.982 5364.73 423.242 5363.99C423.516 5363.25 423.633 5362.37 423.594 5361.37V5359.83C423.62 5358.97 423.561 5358.21 423.418 5357.56C423.275 5356.9 423.047 5356.35 422.734 5355.9C422.435 5355.46 422.051 5355.13 421.582 5354.91C421.126 5354.67 420.586 5354.55 419.961 5354.55C419.349 5354.55 418.828 5354.7 418.398 5354.98C417.982 5355.27 417.643 5355.67 417.383 5356.2C417.122 5356.7 416.934 5357.31 416.816 5358.01C416.699 5358.7 416.641 5359.46 416.641 5360.28ZM444.453 5365.06C444.453 5364.7 444.329 5364.39 444.082 5364.12C443.848 5363.85 443.431 5363.6 442.832 5363.38C442.233 5363.15 441.393 5362.91 440.312 5362.68C439.284 5362.46 438.314 5362.17 437.402 5361.8C436.504 5361.44 435.716 5360.99 435.039 5360.47C434.362 5359.95 433.828 5359.33 433.438 5358.62C433.06 5357.9 432.871 5357.08 432.871 5356.16C432.871 5355.26 433.06 5354.41 433.438 5353.62C433.828 5352.81 434.395 5352.1 435.137 5351.49C435.892 5350.86 436.81 5350.38 437.891 5350.02C438.971 5349.66 440.202 5349.48 441.582 5349.48C443.483 5349.48 445.124 5349.77 446.504 5350.36C447.884 5350.93 448.945 5351.74 449.688 5352.78C450.443 5353.81 450.82 5355 450.82 5356.35H444.238C444.238 5355.82 444.147 5355.36 443.965 5354.98C443.796 5354.61 443.516 5354.32 443.125 5354.12C442.734 5353.92 442.214 5353.81 441.562 5353.81C441.107 5353.81 440.69 5353.9 440.312 5354.07C439.948 5354.24 439.655 5354.47 439.434 5354.77C439.212 5355.07 439.102 5355.42 439.102 5355.82C439.102 5356.11 439.167 5356.37 439.297 5356.61C439.44 5356.83 439.655 5357.04 439.941 5357.23C440.228 5357.41 440.592 5357.58 441.035 5357.74C441.478 5357.88 442.012 5358.01 442.637 5358.13C444.056 5358.39 445.384 5358.76 446.621 5359.24C447.858 5359.72 448.861 5360.41 449.629 5361.29C450.41 5362.18 450.801 5363.37 450.801 5364.87C450.801 5365.8 450.586 5366.67 450.156 5367.46C449.727 5368.25 449.108 5368.94 448.301 5369.54C447.493 5370.12 446.523 5370.58 445.391 5370.9C444.258 5371.23 442.982 5371.39 441.562 5371.39C439.544 5371.39 437.839 5371.03 436.445 5370.32C435.052 5369.59 433.997 5368.68 433.281 5367.58C432.578 5366.48 432.227 5365.36 432.227 5364.22H438.359C438.385 5364.87 438.542 5365.41 438.828 5365.82C439.128 5366.24 439.525 5366.55 440.02 5366.74C440.514 5366.94 441.087 5367.04 441.738 5367.04C442.337 5367.04 442.832 5366.95 443.223 5366.78C443.626 5366.61 443.932 5366.38 444.141 5366.1C444.349 5365.8 444.453 5365.45 444.453 5365.06ZM466.035 5366.16V5341H472.656V5371H466.719L466.035 5366.16ZM453.066 5360.69V5360.28C453.066 5358.68 453.242 5357.22 453.594 5355.9C453.945 5354.57 454.466 5353.43 455.156 5352.48C455.846 5351.52 456.706 5350.78 457.734 5350.26C458.763 5349.74 459.948 5349.48 461.289 5349.48C462.487 5349.48 463.535 5349.76 464.434 5350.32C465.332 5350.86 466.1 5351.63 466.738 5352.62C467.376 5353.61 467.897 5354.77 468.301 5356.1C468.704 5357.41 469.01 5358.83 469.219 5360.36V5360.84C469.01 5362.28 468.704 5363.63 468.301 5364.91C467.897 5366.17 467.376 5367.29 466.738 5368.27C466.1 5369.24 465.326 5370.01 464.414 5370.57C463.516 5371.12 462.461 5371.39 461.25 5371.39C459.909 5371.39 458.724 5371.12 457.695 5370.59C456.68 5370.06 455.827 5369.31 455.137 5368.34C454.46 5367.38 453.945 5366.25 453.594 5364.95C453.242 5363.64 453.066 5362.22 453.066 5360.69ZM459.648 5360.28V5360.69C459.648 5361.48 459.701 5362.22 459.805 5362.89C459.909 5363.57 460.085 5364.17 460.332 5364.69C460.592 5365.2 460.931 5365.6 461.348 5365.88C461.777 5366.17 462.305 5366.31 462.93 5366.31C463.776 5366.31 464.473 5366.11 465.02 5365.71C465.579 5365.3 465.99 5364.73 466.25 5363.99C466.523 5363.25 466.641 5362.37 466.602 5361.37V5359.83C466.628 5358.97 466.569 5358.21 466.426 5357.56C466.283 5356.9 466.055 5356.35 465.742 5355.9C465.443 5355.46 465.059 5355.13 464.59 5354.91C464.134 5354.67 463.594 5354.55 462.969 5354.55C462.357 5354.55 461.836 5354.7 461.406 5354.98C460.99 5355.27 460.651 5355.67 460.391 5356.2C460.13 5356.7 459.941 5357.31 459.824 5358.01C459.707 5358.7 459.648 5359.46 459.648 5360.28ZM488.535 5366.16V5341H495.156V5371H489.219L488.535 5366.16ZM475.566 5360.69V5360.28C475.566 5358.68 475.742 5357.22 476.094 5355.9C476.445 5354.57 476.966 5353.43 477.656 5352.48C478.346 5351.52 479.206 5350.78 480.234 5350.26C481.263 5349.74 482.448 5349.48 483.789 5349.48C484.987 5349.48 486.035 5349.76 486.934 5350.32C487.832 5350.86 488.6 5351.63 489.238 5352.62C489.876 5353.61 490.397 5354.77 490.801 5356.1C491.204 5357.41 491.51 5358.83 491.719 5360.36V5360.84C491.51 5362.28 491.204 5363.63 490.801 5364.91C490.397 5366.17 489.876 5367.29 489.238 5368.27C488.6 5369.24 487.826 5370.01 486.914 5370.57C486.016 5371.12 484.961 5371.39 483.75 5371.39C482.409 5371.39 481.224 5371.12 480.195 5370.59C479.18 5370.06 478.327 5369.31 477.637 5368.34C476.96 5367.38 476.445 5366.25 476.094 5364.95C475.742 5363.64 475.566 5362.22 475.566 5360.69ZM482.148 5360.28V5360.69C482.148 5361.48 482.201 5362.22 482.305 5362.89C482.409 5363.57 482.585 5364.17 482.832 5364.69C483.092 5365.2 483.431 5365.6 483.848 5365.88C484.277 5366.17 484.805 5366.31 485.43 5366.31C486.276 5366.31 486.973 5366.11 487.52 5365.71C488.079 5365.3 488.49 5364.73 488.75 5363.99C489.023 5363.25 489.141 5362.37 489.102 5361.37V5359.83C489.128 5358.97 489.069 5358.21 488.926 5357.56C488.783 5356.9 488.555 5356.35 488.242 5355.9C487.943 5355.46 487.559 5355.13 487.09 5354.91C486.634 5354.67 486.094 5354.55 485.469 5354.55C484.857 5354.55 484.336 5354.7 483.906 5354.98C483.49 5355.27 483.151 5355.67 482.891 5356.2C482.63 5356.7 482.441 5357.31 482.324 5358.01C482.207 5358.7 482.148 5359.46 482.148 5360.28ZM509.961 5365.06C509.961 5364.7 509.837 5364.39 509.59 5364.12C509.355 5363.85 508.939 5363.6 508.34 5363.38C507.741 5363.15 506.901 5362.91 505.82 5362.68C504.792 5362.46 503.822 5362.17 502.91 5361.8C502.012 5361.44 501.224 5360.99 500.547 5360.47C499.87 5359.95 499.336 5359.33 498.945 5358.62C498.568 5357.9 498.379 5357.08 498.379 5356.16C498.379 5355.26 498.568 5354.41 498.945 5353.62C499.336 5352.81 499.902 5352.1 500.645 5351.49C501.4 5350.86 502.318 5350.38 503.398 5350.02C504.479 5349.66 505.71 5349.48 507.09 5349.48C508.991 5349.48 510.632 5349.77 512.012 5350.36C513.392 5350.93 514.453 5351.74 515.195 5352.78C515.951 5353.81 516.328 5355 516.328 5356.35H509.746C509.746 5355.82 509.655 5355.36 509.473 5354.98C509.303 5354.61 509.023 5354.32 508.633 5354.12C508.242 5353.92 507.721 5353.81 507.07 5353.81C506.615 5353.81 506.198 5353.9 505.82 5354.07C505.456 5354.24 505.163 5354.47 504.941 5354.77C504.72 5355.07 504.609 5355.42 504.609 5355.82C504.609 5356.11 504.674 5356.37 504.805 5356.61C504.948 5356.83 505.163 5357.04 505.449 5357.23C505.736 5357.41 506.1 5357.58 506.543 5357.74C506.986 5357.88 507.52 5358.01 508.145 5358.13C509.564 5358.39 510.892 5358.76 512.129 5359.24C513.366 5359.72 514.368 5360.41 515.137 5361.29C515.918 5362.18 516.309 5363.37 516.309 5364.87C516.309 5365.8 516.094 5366.67 515.664 5367.46C515.234 5368.25 514.616 5368.94 513.809 5369.54C513.001 5370.12 512.031 5370.58 510.898 5370.9C509.766 5371.23 508.49 5371.39 507.07 5371.39C505.052 5371.39 503.346 5371.03 501.953 5370.32C500.56 5369.59 499.505 5368.68 498.789 5367.58C498.086 5366.48 497.734 5365.36 497.734 5364.22H503.867C503.893 5364.87 504.049 5365.41 504.336 5365.82C504.635 5366.24 505.033 5366.55 505.527 5366.74C506.022 5366.94 506.595 5367.04 507.246 5367.04C507.845 5367.04 508.34 5366.95 508.73 5366.78C509.134 5366.61 509.44 5366.38 509.648 5366.1C509.857 5365.8 509.961 5365.45 509.961 5365.06ZM531.543 5366.16V5341H538.164V5371H532.227L531.543 5366.16ZM518.574 5360.69V5360.28C518.574 5358.68 518.75 5357.22 519.102 5355.9C519.453 5354.57 519.974 5353.43 520.664 5352.48C521.354 5351.52 522.214 5350.78 523.242 5350.26C524.271 5349.74 525.456 5349.48 526.797 5349.48C527.995 5349.48 529.043 5349.76 529.941 5350.32C530.84 5350.86 531.608 5351.63 532.246 5352.62C532.884 5353.61 533.405 5354.77 533.809 5356.1C534.212 5357.41 534.518 5358.83 534.727 5360.36V5360.84C534.518 5362.28 534.212 5363.63 533.809 5364.91C533.405 5366.17 532.884 5367.29 532.246 5368.27C531.608 5369.24 530.833 5370.01 529.922 5370.57C529.023 5371.12 527.969 5371.39 526.758 5371.39C525.417 5371.39 524.232 5371.12 523.203 5370.59C522.188 5370.06 521.335 5369.31 520.645 5368.34C519.967 5367.38 519.453 5366.25 519.102 5364.95C518.75 5363.64 518.574 5362.22 518.574 5360.69ZM525.156 5360.28V5360.69C525.156 5361.48 525.208 5362.22 525.312 5362.89C525.417 5363.57 525.592 5364.17 525.84 5364.69C526.1 5365.2 526.439 5365.6 526.855 5365.88C527.285 5366.17 527.812 5366.31 528.438 5366.31C529.284 5366.31 529.98 5366.11 530.527 5365.71C531.087 5365.3 531.497 5364.73 531.758 5363.99C532.031 5363.25 532.148 5362.37 532.109 5361.37V5359.83C532.135 5358.97 532.077 5358.21 531.934 5357.56C531.79 5356.9 531.562 5356.35 531.25 5355.9C530.951 5355.46 530.566 5355.13 530.098 5354.91C529.642 5354.67 529.102 5354.55 528.477 5354.55C527.865 5354.55 527.344 5354.7 526.914 5354.98C526.497 5355.27 526.159 5355.67 525.898 5356.2C525.638 5356.7 525.449 5357.31 525.332 5358.01C525.215 5358.7 525.156 5359.46 525.156 5360.28ZM552.969 5365.06C552.969 5364.7 552.845 5364.39 552.598 5364.12C552.363 5363.85 551.947 5363.6 551.348 5363.38C550.749 5363.15 549.909 5362.91 548.828 5362.68C547.799 5362.46 546.829 5362.17 545.918 5361.8C545.02 5361.44 544.232 5360.99 543.555 5360.47C542.878 5359.95 542.344 5359.33 541.953 5358.62C541.576 5357.9 541.387 5357.08 541.387 5356.16C541.387 5355.26 541.576 5354.41 541.953 5353.62C542.344 5352.81 542.91 5352.1 543.652 5351.49C544.408 5350.86 545.326 5350.38 546.406 5350.02C547.487 5349.66 548.717 5349.48 550.098 5349.48C551.999 5349.48 553.639 5349.77 555.02 5350.36C556.4 5350.93 557.461 5351.74 558.203 5352.78C558.958 5353.81 559.336 5355 559.336 5356.35H552.754C552.754 5355.82 552.663 5355.36 552.48 5354.98C552.311 5354.61 552.031 5354.32 551.641 5354.12C551.25 5353.92 550.729 5353.81 550.078 5353.81C549.622 5353.81 549.206 5353.9 548.828 5354.07C548.464 5354.24 548.171 5354.47 547.949 5354.77C547.728 5355.07 547.617 5355.42 547.617 5355.82C547.617 5356.11 547.682 5356.37 547.812 5356.61C547.956 5356.83 548.171 5357.04 548.457 5357.23C548.743 5357.41 549.108 5357.58 549.551 5357.74C549.993 5357.88 550.527 5358.01 551.152 5358.13C552.572 5358.39 553.9 5358.76 555.137 5359.24C556.374 5359.72 557.376 5360.41 558.145 5361.29C558.926 5362.18 559.316 5363.37 559.316 5364.87C559.316 5365.8 559.102 5366.67 558.672 5367.46C558.242 5368.25 557.624 5368.94 556.816 5369.54C556.009 5370.12 555.039 5370.58 553.906 5370.9C552.773 5371.23 551.497 5371.39 550.078 5371.39C548.06 5371.39 546.354 5371.03 544.961 5370.32C543.568 5369.59 542.513 5368.68 541.797 5367.58C541.094 5366.48 540.742 5365.36 540.742 5364.22H546.875C546.901 5364.87 547.057 5365.41 547.344 5365.82C547.643 5366.24 548.04 5366.55 548.535 5366.74C549.03 5366.94 549.603 5367.04 550.254 5367.04C550.853 5367.04 551.348 5366.95 551.738 5366.78C552.142 5366.61 552.448 5366.38 552.656 5366.1C552.865 5365.8 552.969 5365.45 552.969 5365.06ZM574.551 5366.16V5341H581.172V5371H575.234L574.551 5366.16ZM561.582 5360.69V5360.28C561.582 5358.68 561.758 5357.22 562.109 5355.9C562.461 5354.57 562.982 5353.43 563.672 5352.48C564.362 5351.52 565.221 5350.78 566.25 5350.26C567.279 5349.74 568.464 5349.48 569.805 5349.48C571.003 5349.48 572.051 5349.76 572.949 5350.32C573.848 5350.86 574.616 5351.63 575.254 5352.62C575.892 5353.61 576.413 5354.77 576.816 5356.1C577.22 5357.41 577.526 5358.83 577.734 5360.36V5360.84C577.526 5362.28 577.22 5363.63 576.816 5364.91C576.413 5366.17 575.892 5367.29 575.254 5368.27C574.616 5369.24 573.841 5370.01 572.93 5370.57C572.031 5371.12 570.977 5371.39 569.766 5371.39C568.424 5371.39 567.24 5371.12 566.211 5370.59C565.195 5370.06 564.342 5369.31 563.652 5368.34C562.975 5367.38 562.461 5366.25 562.109 5364.95C561.758 5363.64 561.582 5362.22 561.582 5360.69ZM568.164 5360.28V5360.69C568.164 5361.48 568.216 5362.22 568.32 5362.89C568.424 5363.57 568.6 5364.17 568.848 5364.69C569.108 5365.2 569.447 5365.6 569.863 5365.88C570.293 5366.17 570.82 5366.31 571.445 5366.31C572.292 5366.31 572.988 5366.11 573.535 5365.71C574.095 5365.3 574.505 5364.73 574.766 5363.99C575.039 5363.25 575.156 5362.37 575.117 5361.37V5359.83C575.143 5358.97 575.085 5358.21 574.941 5357.56C574.798 5356.9 574.57 5356.35 574.258 5355.9C573.958 5355.46 573.574 5355.13 573.105 5354.91C572.65 5354.67 572.109 5354.55 571.484 5354.55C570.872 5354.55 570.352 5354.7 569.922 5354.98C569.505 5355.27 569.167 5355.67 568.906 5356.2C568.646 5356.7 568.457 5357.31 568.34 5358.01C568.223 5358.7 568.164 5359.46 568.164 5360.28ZM595.977 5365.06C595.977 5364.7 595.853 5364.39 595.605 5364.12C595.371 5363.85 594.954 5363.6 594.355 5363.38C593.757 5363.15 592.917 5362.91 591.836 5362.68C590.807 5362.46 589.837 5362.17 588.926 5361.8C588.027 5361.44 587.24 5360.99 586.562 5360.47C585.885 5359.95 585.352 5359.33 584.961 5358.62C584.583 5357.9 584.395 5357.08 584.395 5356.16C584.395 5355.26 584.583 5354.41 584.961 5353.62C585.352 5352.81 585.918 5352.1 586.66 5351.49C587.415 5350.86 588.333 5350.38 589.414 5350.02C590.495 5349.66 591.725 5349.48 593.105 5349.48C595.007 5349.48 596.647 5349.77 598.027 5350.36C599.408 5350.93 600.469 5351.74 601.211 5352.78C601.966 5353.81 602.344 5355 602.344 5356.35H595.762C595.762 5355.82 595.671 5355.36 595.488 5354.98C595.319 5354.61 595.039 5354.32 594.648 5354.12C594.258 5353.92 593.737 5353.81 593.086 5353.81C592.63 5353.81 592.214 5353.9 591.836 5354.07C591.471 5354.24 591.178 5354.47 590.957 5354.77C590.736 5355.07 590.625 5355.42 590.625 5355.82C590.625 5356.11 590.69 5356.37 590.82 5356.61C590.964 5356.83 591.178 5357.04 591.465 5357.23C591.751 5357.41 592.116 5357.58 592.559 5357.74C593.001 5357.88 593.535 5358.01 594.16 5358.13C595.579 5358.39 596.908 5358.76 598.145 5359.24C599.382 5359.72 600.384 5360.41 601.152 5361.29C601.934 5362.18 602.324 5363.37 602.324 5364.87C602.324 5365.8 602.109 5366.67 601.68 5367.46C601.25 5368.25 600.632 5368.94 599.824 5369.54C599.017 5370.12 598.047 5370.58 596.914 5370.9C595.781 5371.23 594.505 5371.39 593.086 5371.39C591.068 5371.39 589.362 5371.03 587.969 5370.32C586.576 5369.59 585.521 5368.68 584.805 5367.58C584.102 5366.48 583.75 5365.36 583.75 5364.22H589.883C589.909 5364.87 590.065 5365.41 590.352 5365.82C590.651 5366.24 591.048 5366.55 591.543 5366.74C592.038 5366.94 592.611 5367.04 593.262 5367.04C593.861 5367.04 594.355 5366.95 594.746 5366.78C595.15 5366.61 595.456 5366.38 595.664 5366.1C595.872 5365.8 595.977 5365.45 595.977 5365.06ZM617.559 5366.16V5341H624.18V5371H618.242L617.559 5366.16ZM604.59 5360.69V5360.28C604.59 5358.68 604.766 5357.22 605.117 5355.9C605.469 5354.57 605.99 5353.43 606.68 5352.48C607.37 5351.52 608.229 5350.78 609.258 5350.26C610.286 5349.74 611.471 5349.48 612.812 5349.48C614.01 5349.48 615.059 5349.76 615.957 5350.32C616.855 5350.86 617.624 5351.63 618.262 5352.62C618.9 5353.61 619.421 5354.77 619.824 5356.1C620.228 5357.41 620.534 5358.83 620.742 5360.36V5360.84C620.534 5362.28 620.228 5363.63 619.824 5364.91C619.421 5366.17 618.9 5367.29 618.262 5368.27C617.624 5369.24 616.849 5370.01 615.938 5370.57C615.039 5371.12 613.984 5371.39 612.773 5371.39C611.432 5371.39 610.247 5371.12 609.219 5370.59C608.203 5370.06 607.35 5369.31 606.66 5368.34C605.983 5367.38 605.469 5366.25 605.117 5364.95C604.766 5363.64 604.59 5362.22 604.59 5360.69ZM611.172 5360.28V5360.69C611.172 5361.48 611.224 5362.22 611.328 5362.89C611.432 5363.57 611.608 5364.17 611.855 5364.69C612.116 5365.2 612.454 5365.6 612.871 5365.88C613.301 5366.17 613.828 5366.31 614.453 5366.31C615.299 5366.31 615.996 5366.11 616.543 5365.71C617.103 5365.3 617.513 5364.73 617.773 5363.99C618.047 5363.25 618.164 5362.37 618.125 5361.37V5359.83C618.151 5358.97 618.092 5358.21 617.949 5357.56C617.806 5356.9 617.578 5356.35 617.266 5355.9C616.966 5355.46 616.582 5355.13 616.113 5354.91C615.658 5354.67 615.117 5354.55 614.492 5354.55C613.88 5354.55 613.359 5354.7 612.93 5354.98C612.513 5355.27 612.174 5355.67 611.914 5356.2C611.654 5356.7 611.465 5357.31 611.348 5358.01C611.23 5358.7 611.172 5359.46 611.172 5360.28ZM638.984 5365.06C638.984 5364.7 638.861 5364.39 638.613 5364.12C638.379 5363.85 637.962 5363.6 637.363 5363.38C636.764 5363.15 635.924 5362.91 634.844 5362.68C633.815 5362.46 632.845 5362.17 631.934 5361.8C631.035 5361.44 630.247 5360.99 629.57 5360.47C628.893 5359.95 628.359 5359.33 627.969 5358.62C627.591 5357.9 627.402 5357.08 627.402 5356.16C627.402 5355.26 627.591 5354.41 627.969 5353.62C628.359 5352.81 628.926 5352.1 629.668 5351.49C630.423 5350.86 631.341 5350.38 632.422 5350.02C633.503 5349.66 634.733 5349.48 636.113 5349.48C638.014 5349.48 639.655 5349.77 641.035 5350.36C642.415 5350.93 643.477 5351.74 644.219 5352.78C644.974 5353.81 645.352 5355 645.352 5356.35H638.77C638.77 5355.82 638.678 5355.36 638.496 5354.98C638.327 5354.61 638.047 5354.32 637.656 5354.12C637.266 5353.92 636.745 5353.81 636.094 5353.81C635.638 5353.81 635.221 5353.9 634.844 5354.07C634.479 5354.24 634.186 5354.47 633.965 5354.77C633.743 5355.07 633.633 5355.42 633.633 5355.82C633.633 5356.11 633.698 5356.37 633.828 5356.61C633.971 5356.83 634.186 5357.04 634.473 5357.23C634.759 5357.41 635.124 5357.58 635.566 5357.74C636.009 5357.88 636.543 5358.01 637.168 5358.13C638.587 5358.39 639.915 5358.76 641.152 5359.24C642.389 5359.72 643.392 5360.41 644.16 5361.29C644.941 5362.18 645.332 5363.37 645.332 5364.87C645.332 5365.8 645.117 5366.67 644.688 5367.46C644.258 5368.25 643.639 5368.94 642.832 5369.54C642.025 5370.12 641.055 5370.58 639.922 5370.9C638.789 5371.23 637.513 5371.39 636.094 5371.39C634.076 5371.39 632.37 5371.03 630.977 5370.32C629.583 5369.59 628.529 5368.68 627.812 5367.58C627.109 5366.48 626.758 5365.36 626.758 5364.22H632.891C632.917 5364.87 633.073 5365.41 633.359 5365.82C633.659 5366.24 634.056 5366.55 634.551 5366.74C635.046 5366.94 635.618 5367.04 636.27 5367.04C636.868 5367.04 637.363 5366.95 637.754 5366.78C638.158 5366.61 638.464 5366.38 638.672 5366.1C638.88 5365.8 638.984 5365.45 638.984 5365.06Z" fill="black"/>
<path d="M-126 317C-126 289.386 -103.614 267 -76 267H312C339.614 267 362 289.386 362 317V1027C362 1054.61 339.614 1077 312 1077H-76C-103.614 1077 -126 1054.61 -126 1027V317Z" fill="#70D8A6"/>
<path d="M-126 1737C-126 1709.39 -103.614 1687 -76 1687H312C339.614 1687 362 1709.39 362 1737V2447C362 2474.61 339.614 2497 312 2497H-76C-103.614 2497 -126 2474.61 -126 2447V1737Z" fill="#70D8A6"/>
<path d="M772 3142C772 3114.39 794.386 3092 822 3092H1210C1237.61 3092 1260 3114.39 1260 3142V3852C1260 3879.61 1237.61 3902 1210 3902H822C794.386 3902 772 3879.61 772 3852V3142Z" fill="#70D8A6"/>
<path d="M-91 5292C-91 5264.39 -68.6142 5242 -41 5242H347C374.614 5242 397 5264.39 397 5292V6002C397 6029.61 374.614 6052 347 6052H-41C-68.6142 6052 -91 6029.61 -91 6002V5292Z" fill="#70D8A6"/>
<path d="M894 874C894 846.386 916.386 824 944 824H1381C1408.61 824 1431 846.386 1431 874V1557C1431 1584.61 1408.61 1607 1381 1607H944C916.386 1607 894 1584.61 894 1557V874Z" fill="#1A44F5"/>
<path d="M264 4313C264 4285.39 286.386 4263 314 4263H751C778.614 4263 801 4285.39 801 4313V4996C801 5023.61 778.614 5046 751 5046H314C286.386 5046 264 5023.61 264 4996V4313Z" fill="#1A44F5"/>
<path d="M833 5292C833 5264.39 855.386 5242 883 5242H1320C1347.61 5242 1370 5264.39 1370 5292V5975C1370 6002.61 1347.61 6025 1320 6025H883C855.386 6025 833 6002.61 833 5975V5292Z" fill="#1A44F5"/>
<path d="M-151 2959C-151 2931.39 -128.614 2909 -101 2909H336C363.614 2909 386 2931.39 386 2959V3642C386 3669.61 363.614 3692 336 3692H-101C-128.614 3692 -151 3669.61 -151 3642V2959Z" fill="#1A44F5"/>
<path d="M894 2008C894 1980.39 916.386 1958 944 1958H1381C1408.61 1958 1431 1980.39 1431 2008V2691C1431 2718.61 1408.61 2741 1381 2741H944C916.386 2741 894 2718.61 894 2691V2008Z" fill="#1A44F5"/>
</g>
<defs>
<clipPath id="clip0_11_365">
<rect width="1260" height="6252" fill="white"/>
</clipPath>
</defs>
</svg>
